<svg width="237" height="63" viewBox="0 0 237 63" fill="none" xmlns="http://www.w3.org/2000/svg">
<path d="M237 1H0V62H237V1Z" fill="white"/>
<path d="M0 0.883514H27.935C50.446 0.883514 66 14.1733 66 31.5124V31.6879C66 49.0261 50.446 62.4923 27.935 62.4923H0V0.883514Z" fill="black"/>
<path d="M74.5 62.4923C79.194 62.4923 83 59.2802 83 55.3187C83 51.3571 79.194 48.1451 74.5 48.1451C69.806 48.1451 66 51.3571 66 55.3187C66 59.2802 69.806 62.4923 74.5 62.4923Z" fill="black"/>
<path d="M93 62.4923H94V0.883514H93V62.4923Z" fill="black"/>
<path d="M109 14.3868H116.081C121.941 14.3868 126 17.7804 126 23.0964C126 28.3889 122.033 32.1099 116.051 32.1099H109V14.3868ZM110.648 30.8439H115.805C121.452 30.8439 124.23 27.5517 124.23 23.1732C124.23 19.2725 121.728 15.6527 115.805 15.6527H110.648V30.8439Z" fill="black"/>
<path d="M140.969 28.188C140.969 29.3974 141 31.3225 141 31.7909H139.595C139.519 31.0769 139.489 30.3612 139.506 29.6447C139.157 30.4363 138.503 31.1064 137.65 31.5495C136.797 31.9917 135.793 32.1808 134.797 32.0863C132.692 32.0863 130 31.3968 130 27.6192V19.4506H131.434V27.3238C131.434 29.1265 132.106 30.8786 135.002 30.8786C138.277 30.8786 139.506 29.3232 139.506 25.7946V19.4506H140.969V28.188Z" fill="black"/>
<path d="M146.026 23.1108C146.026 21.033 146 20.1434 146 19.7468H147.307C147.333 20.1434 147.359 20.9342 147.359 22.5166C147.71 21.6322 148.341 20.8659 149.169 20.319C149.997 19.7721 150.984 19.4691 152 19.4506V20.7857C151.341 20.8051 150.694 20.9494 150.098 21.2102C149.502 21.471 148.97 21.8423 148.535 22.3014C148.1 22.7606 147.772 23.2973 147.569 23.8788C147.367 24.4603 147.296 25.0738 147.359 25.6815V32.1099H146.026V23.1108Z" fill="black"/>
<path d="M165.969 28.188C165.969 29.3974 166 31.3225 166 31.7909H164.595C164.519 31.0769 164.489 30.3612 164.507 29.6447C164.157 30.4363 163.503 31.1064 162.65 31.5495C161.797 31.9917 160.793 32.1808 159.797 32.0863C157.692 32.0863 155 31.3968 155 27.6192V19.4506H156.434V27.3238C156.434 29.1265 157.106 30.8786 160.002 30.8786C163.277 30.8786 164.507 29.3232 164.507 25.7946V19.4506H165.969V28.188Z" fill="black"/>
<path d="M111 44.7692V62.4923H109V44.7692H111Z" fill="black"/>
<path d="M117.53 56.3956C118.939 55.1609 123.224 51.5833 125.275 49.8946H127.235L121.175 54.9085L128 62.4923H126.103L120.071 55.7145L117.531 57.7307V62.4923H116V43.9253H117.531L117.53 56.3956Z" fill="black"/>
<path d="M130.456 55.89C130.484 59.2136 132.343 61.2728 135.086 61.2728C135.972 61.3353 136.856 61.1319 137.6 60.6938C138.344 60.2567 138.906 59.6094 139.199 58.8532H140.658C140.326 59.9495 139.585 60.9091 138.559 61.5707C137.534 62.2315 136.286 62.5539 135.028 62.4822C130.684 62.4822 129 59.1106 129 55.8394C129 52.1572 131.029 48.989 135.2 48.989C139.599 48.989 141 52.4129 141 54.8351C141 55.1955 141 55.5567 140.972 55.89H130.456ZM139.513 54.7575C139.485 52.2079 137.943 50.1993 135.142 50.1993C132.199 50.1993 130.856 52.0526 130.542 54.7575H139.513Z" fill="black"/>
<path d="M156 58.3974C155.765 59.5646 155.059 60.6187 154.013 61.3699C152.966 62.121 151.646 62.5185 150.293 62.4906C146.617 62.4906 144 60.0963 144 55.7947C144 52.2678 146.146 48.9966 150.471 48.9966C151.82 48.9291 153.148 49.3198 154.177 50.087C155.207 50.855 155.86 51.9395 156 53.1168H154.499C154.341 52.283 153.842 51.5276 153.095 50.9917C152.348 50.4566 151.404 50.1773 150.439 50.206C147.324 50.206 145.559 52.526 145.559 55.7449C145.559 58.8084 147.204 61.2812 150.293 61.2812C151.27 61.3099 152.226 61.0373 152.995 60.5099C153.765 59.9824 154.297 59.2346 154.499 58.3974H156Z" fill="black"/>
<path d="M160.562 43.9253V52.0121C161.037 51.2483 161.778 50.6128 162.694 50.1832C163.61 49.7536 164.662 49.5486 165.72 49.5933C167.939 49.5933 171 50.4997 171 54.4815V62.4923H169.438V54.7321C169.438 52.2391 168.031 50.828 165.438 50.828C162.344 50.828 160.562 52.3649 160.562 55.4647V62.4923H159V43.9253H160.562Z" fill="black"/>
<path d="M185.969 58.5704C185.969 59.7798 186 61.7049 186 62.1733H184.595C184.519 61.4593 184.489 60.7436 184.507 60.0271C184.157 60.8187 183.503 61.4888 182.65 61.9319C181.797 62.3741 180.793 62.5632 179.797 62.4686C177.692 62.4686 175 61.7791 175 58.0016V49.8329H176.434V57.7062C176.434 59.5089 177.106 61.2609 180.002 61.2609C183.277 61.2609 184.507 59.7055 184.507 56.177V49.8329H185.969V58.5704Z" fill="black"/>
<path d="M192.531 56.3956C193.939 55.1609 198.224 51.5833 200.275 49.8946H202.235L196.175 54.9085L203 62.4923H201.103L195.071 55.7145L192.531 57.7307V62.4923H191V43.9253H192.531V56.3956Z" fill="black"/>
<path d="M204.555 49.8329C206.725 56.366 207.986 60.1132 208.222 61.2264H208.251C208.485 60.2145 209.951 56.2403 212.238 49.8329H213.821C216.548 57.6564 217.37 59.909 217.635 60.8964H217.663C218.074 59.5055 218.747 57.6066 221.446 49.8329H223L218.368 62.4923H216.754C215.17 58.0109 213.265 52.5167 212.971 51.3521H212.943C212.649 52.5935 210.978 57.1239 209.072 62.4923H207.312L203 49.8329H204.555Z" fill="black"/>
<path d="M236.969 58.5704C236.969 59.7798 237 61.7049 237 62.1733H235.595C235.519 61.4593 235.489 60.7436 235.506 60.0271C235.157 60.8187 234.503 61.4888 233.65 61.9319C232.797 62.3741 231.793 62.5632 230.797 62.4686C228.692 62.4686 226 61.7791 226 58.0016V49.8329H227.434V57.7062C227.434 59.5089 228.106 61.2609 231.002 61.2609C234.277 61.2609 235.506 59.7055 235.506 56.177V49.8329H236.969V58.5704Z" fill="black"/>
</svg>
