<?xml version="1.0"?>
<svg xmlns="http://www.w3.org/2000/svg" xmlns:xlink="http://www.w3.org/1999/xlink" xmlns:svgjs="http://svgjs.com/svgjs" version="1.1" width="512" height="512" x="0" y="0" viewBox="0 0 512 512" style="enable-background:new 0 0 512 512" xml:space="preserve" class=""><g><path xmlns="http://www.w3.org/2000/svg" d="m497 60.001h-172.917v-45.001c0-8.284-6.716-15-15-15h-110.119c-8.284 0-15 6.716-15 15v45.001h-168.964c-8.284 0-15 6.716-15 15v60.001c0 8.284 6.716 15 15 15h15v229.994c0 8.284 6.716 15 15 15h196v29.582c-17.459 6.192-30 22.865-30 42.42 0 24.814 20.187 45.002 45 45.002s45-20.188 45-45.001c0-19.555-12.541-36.228-30-42.42v-29.582h196c8.284 0 15-6.716 15-15v-229.994h15c8.284 0 15-6.716 15-15v-60.002c0-8.284-6.716-15-15-15zm-241 421.999c-8.271 0-15-6.729-15-15.001s6.729-15 15-15 15 6.729 15 15-6.729 15.001-15 15.001zm-42.036-452h80.119v30.001h-80.119zm238.036 334.997h-392v-214.994h392zm30-244.994h-452v-30.002h452z" fill="#7f8fa6" data-original="#000000" style=""/></g></svg>
