<?xml version="1.0"?>
<svg xmlns="http://www.w3.org/2000/svg" xmlns:xlink="http://www.w3.org/1999/xlink" xmlns:svgjs="http://svgjs.com/svgjs" version="1.1" width="512" height="512" x="0" y="0" viewBox="0 0 512 512" style="enable-background:new 0 0 512 512" xml:space="preserve"><g><g xmlns="http://www.w3.org/2000/svg"><g><path d="m311.984 0c-110.28 0-200 89.72-200 200 0 33.337 8.21 64.788 22.697 92.456l-117.121 117.107c-23.392 23.392-23.392 61.455 0 84.847 23.453 23.452 61.392 23.455 84.848 0l117.12-117.107c27.668 14.487 59.119 22.697 92.456 22.697 110.28 0 200-89.72 200-200s-89.72-200-200-200zm-237.862 466.126c-7.82 7.82-20.457 7.821-28.277 0-7.797-7.796-7.797-20.482 0-28.278l111.353-111.339c8.464 10.337 17.941 19.813 28.278 28.278zm237.862-106.126c-88.225 0-160-71.776-160-160s71.775-160 160-160 160 71.776 160 160-71.776 160-160 160z" fill="#7f8fa6" data-original="#000000" style=""/></g><g><path d="m311.984 80c-33.084 0-60 26.916-60 60 0 11.046 8.954 20 20 20s20-8.954 20-20c0-11.028 8.972-20 20-20s20 8.972 20 20c0 7.202-3.903 13.883-10.186 17.435-18.391 10.396-29.814 29.968-29.814 51.078v11.487c0 11.046 8.954 20 20 20s20-8.954 20-20v-11.487c0-6.715 3.64-12.945 9.498-16.257 18.814-10.635 30.502-30.659 30.502-52.256 0-33.084-26.916-60-60-60z" fill="#7f8fa6" data-original="#000000" style=""/></g><g><circle cx="311.984" cy="300" r="20" fill="#7f8fa6" data-original="#000000" style=""/></g></g></g></svg>
